<svg 
 xmlns="http://www.w3.org/2000/svg"
 xmlns:xlink="http://www.w3.org/1999/xlink"
 width="16px" height="10px">
<path fill-rule="evenodd"  fill="rgb(255, 255, 255)"
 d="M15.706,5.705 C15.802,5.608 15.875,5.497 15.924,5.376 C15.974,5.255 15.999,5.127 15.999,4.999 C15.999,4.869 15.974,4.740 15.923,4.618 C15.923,4.618 15.923,4.616 15.923,4.615 C15.876,4.503 15.807,4.408 15.726,4.322 C15.718,4.313 15.715,4.301 15.706,4.291 L11.706,0.291 C11.316,-0.099 10.682,-0.099 10.292,0.291 C9.901,0.682 9.901,1.314 10.292,1.705 L12.585,3.998 L0.999,3.998 C0.447,3.998 -0.000,4.446 -0.000,4.999 C-0.000,5.550 0.447,5.998 0.999,5.998 L12.585,5.998 L10.292,8.291 C9.901,8.682 9.901,9.314 10.292,9.705 C10.682,10.095 11.316,10.095 11.706,9.705 L15.706,5.705 Z"/>
</svg>