<svg xmlns="http://www.w3.org/2000/svg" width="18" height="18" viewBox="0 0 18 18">
  <metadata><?xpacket begin="﻿" id="W5M0MpCehiHzreSzNTczkc9d"?>
<x:xmpmeta xmlns:x="adobe:ns:meta/" x:xmptk="Adobe XMP Core 5.6-c138 79.159824, 2016/09/14-01:09:01        ">
   <rdf:RDF xmlns:rdf="http://www.w3.org/1999/02/22-rdf-syntax-ns#">
      <rdf:Description rdf:about=""/>
   </rdf:RDF>
</x:xmpmeta>
                                                                                                    
                                                                                                    
                                                                                                    
                                                                                                    
                                                                                                    
                                                                                                    
                                                                                                    
                                                                                                    
                                                                                                    
                                                                                                    
                                                                                                    
                                                                                                    
                                                                                                    
                                                                                                    
                                                                                                    
                                                                                                    
                                                                                                    
                                                                                                    
                                                                                                    
                                                                                                    
                           
<?xpacket end="w"?></metadata>
<defs>
    <style>
      .cls-1 {
        fill: #f5f5f5;
        fill-rule: evenodd;
      }
    </style>
  </defs>
  <path id="icon_instar" class="cls-1" d="M1134.45,7108.97h-6.9a5.542,5.542,0,0,0-5.55,5.54v6.91a5.55,5.55,0,0,0,5.55,5.55h6.9a5.55,5.55,0,0,0,5.55-5.55v-6.91A5.542,5.542,0,0,0,1134.45,7108.97Zm3.82,11.79a4.485,4.485,0,0,1-4.48,4.48h-5.58a4.479,4.479,0,0,1-4.48-4.48v-5.58a4.481,4.481,0,0,1,4.48-4.49h5.58a4.488,4.488,0,0,1,4.48,4.49v5.58Zm-7.03-7.5a4.74,4.74,0,1,0,4.74,4.74A4.737,4.737,0,0,0,1131.24,7113.26Zm0,7.59a2.85,2.85,0,1,1,2.85-2.85A2.849,2.849,0,0,1,1131.24,7120.85Zm5.62-7.67a1.205,1.205,0,1,1-1.21-1.2A1.208,1.208,0,0,1,1136.86,7113.18Z" transform="translate(-1122 -7108.97)"/>
</svg>
