<svg 
 xmlns="http://www.w3.org/2000/svg"
 xmlns:xlink="http://www.w3.org/1999/xlink"
 width="17px" height="20px">
<path fill-rule="evenodd"  fill="rgb(255, 255, 255)"
 d="M13.736,10.633 C13.761,13.661 16.338,14.660 16.369,14.672 C16.354,14.744 15.966,16.117 14.999,17.511 C14.192,18.742 13.347,19.942 12.004,19.964 C10.700,19.996 10.262,19.183 8.766,19.183 C7.256,19.183 6.788,19.942 5.537,19.996 C4.258,20.043 3.281,18.683 2.446,17.465 C0.774,14.979 -0.527,10.462 1.217,7.386 C2.062,5.878 3.605,4.907 5.253,4.882 C6.532,4.855 7.720,5.760 8.507,5.760 C9.278,5.760 10.747,4.678 12.262,4.839 C12.896,4.855 14.699,5.093 15.863,6.820 C15.768,6.877 13.714,8.106 13.736,10.633 ZM8.353,4.609 C8.210,3.470 8.765,2.261 9.385,1.522 C10.085,0.683 11.304,0.042 12.278,-0.004 C12.405,1.181 11.945,2.346 11.273,3.203 C10.570,4.048 9.447,4.692 8.353,4.609 Z"/>
</svg>