<svg 
 xmlns="http://www.w3.org/2000/svg"
 xmlns:xlink="http://www.w3.org/1999/xlink"
 width="19px" height="19px">
<path fill-rule="evenodd"  fill="rgb(118, 118, 118)"
 d="M13.229,18.676 L5.622,18.676 C2.753,18.676 0.428,16.352 0.428,13.483 L0.428,5.875 C0.428,3.006 2.753,0.682 5.622,0.682 L13.229,0.682 C16.098,0.682 18.423,3.006 18.423,5.875 L18.423,13.483 C18.423,16.352 16.098,18.676 13.229,18.676 ZM16.765,5.832 C16.765,3.927 15.222,2.382 13.317,2.382 L5.532,2.382 C3.629,2.382 2.083,3.927 2.083,5.832 L2.083,13.616 C2.083,15.521 3.629,17.066 5.532,17.066 L13.317,17.066 C15.222,17.066 16.765,15.521 16.765,13.616 L16.765,5.832 ZM14.250,5.964 C13.650,5.964 13.162,5.479 13.162,4.876 C13.162,4.275 13.650,3.789 14.250,3.789 C14.852,3.789 15.338,4.275 15.338,4.876 C15.338,5.479 14.852,5.964 14.250,5.964 ZM9.425,14.393 C6.846,14.393 4.757,12.302 4.757,9.724 C4.757,7.145 6.846,5.054 9.425,5.054 C12.003,5.054 14.095,7.145 14.095,9.724 C14.095,12.302 12.003,14.393 9.425,14.393 ZM9.425,6.695 C7.753,6.695 6.398,8.051 6.398,9.724 C6.398,11.396 7.753,12.751 9.425,12.751 C11.097,12.751 12.452,11.396 12.452,9.724 C12.452,8.051 11.097,6.695 9.425,6.695 Z"/>
</svg>