<svg xmlns="http://www.w3.org/2000/svg" width="16" height="10" viewBox="0 0 16 10">
  <metadata><?xpacket begin="﻿" id="W5M0MpCehiHzreSzNTczkc9d"?>
<x:xmpmeta xmlns:x="adobe:ns:meta/" x:xmptk="Adobe XMP Core 5.6-c138 79.159824, 2016/09/14-01:09:01        ">
   <rdf:RDF xmlns:rdf="http://www.w3.org/1999/02/22-rdf-syntax-ns#">
      <rdf:Description rdf:about=""/>
   </rdf:RDF>
</x:xmpmeta>
                                                                                                    
                                                                                                    
                                                                                                    
                                                                                                    
                                                                                                    
                                                                                                    
                                                                                                    
                                                                                                    
                                                                                                    
                                                                                                    
                                                                                                    
                                                                                                    
                                                                                                    
                                                                                                    
                                                                                                    
                                                                                                    
                                                                                                    
                                                                                                    
                                                                                                    
                                                                                                    
                           
<?xpacket end="w"?></metadata>
<defs>
    <style>
      .cls-1 {
        fill: #5143d4;
        fill-rule: evenodd;
      }
    </style>
  </defs>
  <path id="icon_arrow" class="cls-1" d="M1026.71,2772.71a1.155,1.155,0,0,0,.21-0.33,1.036,1.036,0,0,0,.08-0.38,1,1,0,0,0-.08-0.38v-0.01a0.91,0.91,0,0,0-.19-0.29c-0.01-.01-0.01-0.02-0.02-0.03l-4-4a1.008,1.008,0,0,0-1.42,0,1,1,0,0,0,0,1.41l2.3,2.3H1012a1,1,0,0,0,0,2h11.59l-2.3,2.29a1,1,0,0,0,0,1.41,1.008,1.008,0,0,0,1.42,0Z" transform="translate(-1011 -2767)"/>
</svg>
