<svg 
 xmlns="http://www.w3.org/2000/svg"
 xmlns:xlink="http://www.w3.org/1999/xlink"
 width="30px" height="20px">
<path fill-rule="evenodd"  fill="rgb(118, 118, 118)"
 d="M28.000,12.013 L28.000,14.013 L26.000,14.013 L26.000,16.013 L24.000,16.013 L24.000,18.013 L22.000,18.013 L22.000,20.013 L20.000,20.013 L20.000,18.013 L20.000,16.013 L22.000,16.013 L22.000,14.013 L24.000,14.013 L24.000,12.013 L-0.000,12.013 L-0.000,8.013 L24.000,8.013 L24.000,6.013 L22.000,6.013 L22.000,4.013 L20.000,4.013 L20.000,2.013 L20.000,0.013 L22.000,0.013 L22.000,2.013 L24.000,2.013 L24.000,4.013 L26.000,4.013 L26.000,6.013 L28.000,6.013 L28.000,8.013 L30.000,8.013 L30.000,10.013 L30.000,12.013 L28.000,12.013 Z"/>
</svg>