<svg xmlns="http://www.w3.org/2000/svg" width="22" height="18" viewBox="0 0 22 18">
  <metadata><?xpacket begin="﻿" id="W5M0MpCehiHzreSzNTczkc9d"?>
<x:xmpmeta xmlns:x="adobe:ns:meta/" x:xmptk="Adobe XMP Core 5.6-c138 79.159824, 2016/09/14-01:09:01        ">
   <rdf:RDF xmlns:rdf="http://www.w3.org/1999/02/22-rdf-syntax-ns#">
      <rdf:Description rdf:about=""/>
   </rdf:RDF>
</x:xmpmeta>
                                                                                                    
                                                                                                    
                                                                                                    
                                                                                                    
                                                                                                    
                                                                                                    
                                                                                                    
                                                                                                    
                                                                                                    
                                                                                                    
                                                                                                    
                                                                                                    
                                                                                                    
                                                                                                    
                                                                                                    
                                                                                                    
                                                                                                    
                                                                                                    
                                                                                                    
                                                                                                    
                           
<?xpacket end="w"?></metadata>
<defs>
    <style>
      .cls-1 {
        fill: #f5f5f5;
        fill-rule: evenodd;
      }
    </style>
  </defs>
  <path id="icon_twitter" class="cls-1" d="M1299.92,7126.87a12.8,12.8,0,0,0,12.84-12.92c0-.2,0-0.4-0.01-0.59a9.144,9.144,0,0,0,2.25-2.35,9.035,9.035,0,0,1-2.59.71,4.569,4.569,0,0,0,1.99-2.51,9,9,0,0,1-2.87,1.1,4.514,4.514,0,0,0-7.81,3.11,5.172,5.172,0,0,0,.11,1.04,12.806,12.806,0,0,1-9.3-4.75,4.562,4.562,0,0,0,1.4,6.06,4.462,4.462,0,0,1-2.05-.57v0.06a4.552,4.552,0,0,0,3.62,4.46,4.68,4.68,0,0,1-1.19.16,4.022,4.022,0,0,1-.85-0.09,4.539,4.539,0,0,0,4.22,3.16,9.005,9.005,0,0,1-5.61,1.95,9.455,9.455,0,0,1-1.07-.07,12.688,12.688,0,0,0,6.92,2.04" transform="translate(-1293 -7108.88)"/>
</svg>
