<svg 
 xmlns="http://www.w3.org/2000/svg"
 xmlns:xlink="http://www.w3.org/1999/xlink"
 width="28px" height="28px">
<path fill-rule="evenodd"  fill="rgb(255, 255, 255)"
 d="M27.000,27.999 L1.000,27.999 C0.447,27.999 -0.000,27.552 -0.000,26.999 L-0.000,22.999 C-0.000,22.447 0.447,21.999 1.000,21.999 C1.553,21.999 2.000,22.447 2.000,22.999 L2.000,26.000 L26.000,26.000 L26.000,22.999 C26.000,22.447 26.447,21.999 27.000,21.999 C27.553,21.999 28.000,22.447 28.000,22.999 L28.000,26.999 C28.000,27.552 27.553,27.999 27.000,27.999 ZM14.708,19.706 C14.615,19.799 14.504,19.871 14.382,19.922 C14.260,19.972 14.130,19.999 14.000,19.999 C13.870,19.999 13.740,19.973 13.618,19.922 C13.495,19.871 13.385,19.798 13.292,19.706 L7.293,13.707 C6.902,13.315 6.902,12.683 7.293,12.292 C7.684,11.901 8.316,11.901 8.707,12.292 L13.000,16.585 L13.000,0.999 C13.000,0.447 13.447,-0.001 14.000,-0.001 C14.553,-0.001 15.000,0.447 15.000,0.999 L15.000,16.585 L19.293,12.292 C19.684,11.901 20.316,11.901 20.707,12.292 C21.098,12.683 21.098,13.315 20.707,13.707 L14.708,19.706 Z"/>
</svg>