<svg 
 xmlns="http://www.w3.org/2000/svg"
 xmlns:xlink="http://www.w3.org/1999/xlink"
 width="80px" height="80px">
<path fill-rule="evenodd"  fill="rgb(118, 118, 118)"
 d="M69.817,79.822 C69.567,79.934 69.292,80.000 69.000,80.000 L12.000,80.000 C5.383,80.000 -0.000,74.617 -0.000,68.000 L-0.000,8.000 C-0.000,3.589 3.589,-0.000 8.000,-0.000 L52.000,-0.000 C56.411,-0.000 60.000,3.589 60.000,8.000 L60.000,48.000 L78.000,48.000 C79.104,48.000 80.000,48.895 80.000,50.000 L80.000,66.000 C80.000,72.997 75.573,78.795 69.817,79.822 ZM56.000,66.000 L56.000,50.000 L56.000,8.000 C56.000,5.794 54.206,4.000 52.000,4.000 L8.000,4.000 C5.794,4.000 4.000,5.794 4.000,8.000 L4.000,68.000 C4.000,72.411 7.589,76.000 12.000,76.000 L59.618,76.000 C57.389,73.457 56.000,69.916 56.000,66.000 ZM76.000,52.000 L60.000,52.000 L60.000,66.000 C60.000,71.514 63.589,76.000 68.000,76.000 C72.411,76.000 76.000,71.514 76.000,66.000 L76.000,52.000 ZM14.000,56.000 L46.000,56.000 C47.104,56.000 48.000,56.895 48.000,58.000 C48.000,59.104 47.104,60.000 46.000,60.000 L14.000,60.000 C12.895,60.000 12.000,59.104 12.000,58.000 C12.000,56.895 12.895,56.000 14.000,56.000 ZM46.000,48.000 L14.000,48.000 C12.895,48.000 12.000,47.104 12.000,46.000 C12.000,44.895 12.895,44.000 14.000,44.000 L46.000,44.000 C47.104,44.000 48.000,44.895 48.000,46.000 C48.000,47.104 47.104,48.000 46.000,48.000 ZM46.000,36.000 L14.000,36.000 C12.895,36.000 12.000,35.104 12.000,34.000 C12.000,32.895 12.895,32.000 14.000,32.000 L46.000,32.000 C47.104,32.000 48.000,32.895 48.000,34.000 C48.000,35.104 47.104,36.000 46.000,36.000 ZM36.000,22.000 L24.000,22.000 C22.895,22.000 22.000,21.104 22.000,20.000 C22.000,18.895 22.895,18.000 24.000,18.000 L36.000,18.000 C37.104,18.000 38.000,18.895 38.000,20.000 C38.000,21.104 37.104,22.000 36.000,22.000 Z"/>
</svg>