<svg 
 xmlns="http://www.w3.org/2000/svg"
 xmlns:xlink="http://www.w3.org/1999/xlink"
 width="25px" height="19px">
<path fill-rule="evenodd"  fill="rgb(118, 118, 118)"
 d="M24.539,4.105 C24.080,2.164 23.223,1.418 21.643,1.151 C20.736,1.007 16.370,0.825 12.903,0.825 C9.437,0.825 5.071,1.007 4.164,1.151 C2.586,1.418 1.725,2.169 1.270,4.105 C1.115,4.751 0.904,8.321 0.904,9.678 L0.904,9.979 C0.904,11.341 1.115,14.906 1.270,15.558 C1.725,17.493 2.586,18.241 4.164,18.509 C5.071,18.652 9.441,18.830 12.911,18.830 L12.896,18.834 C16.365,18.834 20.734,18.652 21.643,18.509 C23.223,18.241 24.080,17.493 24.539,15.558 C24.691,14.906 24.903,11.341 24.903,9.979 L24.903,9.678 C24.903,8.321 24.691,4.751 24.539,4.105 ZM10.026,13.085 L10.026,6.574 L15.779,9.755 L10.026,13.085 Z"/>
</svg>