<svg xmlns="http://www.w3.org/2000/svg" width="25" height="18" viewBox="0 0 25 18">
  <metadata><?xpacket begin="﻿" id="W5M0MpCehiHzreSzNTczkc9d"?>
<x:xmpmeta xmlns:x="adobe:ns:meta/" x:xmptk="Adobe XMP Core 5.6-c138 79.159824, 2016/09/14-01:09:01        ">
   <rdf:RDF xmlns:rdf="http://www.w3.org/1999/02/22-rdf-syntax-ns#">
      <rdf:Description rdf:about=""/>
   </rdf:RDF>
</x:xmpmeta>
                                                                                                    
                                                                                                    
                                                                                                    
                                                                                                    
                                                                                                    
                                                                                                    
                                                                                                    
                                                                                                    
                                                                                                    
                                                                                                    
                                                                                                    
                                                                                                    
                                                                                                    
                                                                                                    
                                                                                                    
                                                                                                    
                                                                                                    
                                                                                                    
                                                                                                    
                                                                                                    
                           
<?xpacket end="w"?></metadata>
<defs>
    <style>
      .cls-1 {
        fill: #f5f5f5;
        fill-rule: evenodd;
      }
    </style>
  </defs>
  <path id="icon_youtube" class="cls-1" d="M1254,7117.77h0a35.9,35.9,0,0,0-.32-4.66c-0.43-3.56-2.26-3.68-3.21-3.89-2.03-.44-8.97-0.33-8.97-0.33s-6.94-.11-8.97.33c-0.95.21-2.78,0.33-3.21,3.89a35.9,35.9,0,0,0-.32,4.66h0v0.11h0a37.205,37.205,0,0,0,.32,4.76c0.43,3.55,2.26,3.68,3.21,3.89,2.03,0.44,8.97.33,8.97,0.33s6.94,0.11,8.97-.33c0.95-.21,2.78-0.34,3.21-3.89a37.205,37.205,0,0,0,.32-4.76h0v-0.11Zm-15.6,4.27v-8.33l7.8,4.22Z" transform="translate(-1229 -7108.88)"/>
</svg>
