<svg xmlns="http://www.w3.org/2000/svg" width="16" height="10" viewBox="0 0 16 10">
  <metadata><?xpacket begin="﻿" id="W5M0MpCehiHzreSzNTczkc9d"?>
<x:xmpmeta xmlns:x="adobe:ns:meta/" x:xmptk="Adobe XMP Core 5.6-c138 79.159824, 2016/09/14-01:09:01        ">
   <rdf:RDF xmlns:rdf="http://www.w3.org/1999/02/22-rdf-syntax-ns#">
      <rdf:Description rdf:about=""/>
   </rdf:RDF>
</x:xmpmeta>
                                                                                                    
                                                                                                    
                                                                                                    
                                                                                                    
                                                                                                    
                                                                                                    
                                                                                                    
                                                                                                    
                                                                                                    
                                                                                                    
                                                                                                    
                                                                                                    
                                                                                                    
                                                                                                    
                                                                                                    
                                                                                                    
                                                                                                    
                                                                                                    
                                                                                                    
                                                                                                    
                           
<?xpacket end="w"?></metadata>
<defs>
    <style>
      .cls-1 {
        fill: #fff;
        fill-rule: evenodd;
      }
    </style>
  </defs>
  <path id="icon_arrow" class="cls-1" d="M566.706,1732.71a1.047,1.047,0,0,0,.218-0.33A1.028,1.028,0,0,0,567,1732a0.973,0.973,0,0,0-.076-0.38v-0.01a1.048,1.048,0,0,0-.2-0.29c-0.008-.01-0.011-0.02-0.02-0.03l-4-4a1,1,0,1,0-1.414,1.41l2.293,2.3H552a1,1,0,1,0,0,2h11.586l-2.293,2.29a0.994,0.994,0,0,0,0,1.41,0.983,0.983,0,0,0,1.414,0Z" transform="translate(-551 -1727)"/>
</svg>
