<svg xmlns="http://www.w3.org/2000/svg" width="17.906" height="17.906" viewBox="0 0 17.906 17.906">
  <metadata><?xpacket begin="﻿" id="W5M0MpCehiHzreSzNTczkc9d"?>
<x:xmpmeta xmlns:x="adobe:ns:meta/" x:xmptk="Adobe XMP Core 5.6-c138 79.159824, 2016/09/14-01:09:01        ">
   <rdf:RDF xmlns:rdf="http://www.w3.org/1999/02/22-rdf-syntax-ns#">
      <rdf:Description rdf:about=""/>
   </rdf:RDF>
</x:xmpmeta>
                                                                                                    
                                                                                                    
                                                                                                    
                                                                                                    
                                                                                                    
                                                                                                    
                                                                                                    
                                                                                                    
                                                                                                    
                                                                                                    
                                                                                                    
                                                                                                    
                                                                                                    
                                                                                                    
                                                                                                    
                                                                                                    
                                                                                                    
                                                                                                    
                                                                                                    
                                                                                                    
                           
<?xpacket end="w"?></metadata>
<defs>
    <style>
      .cls-1 {
        fill: #101010;
        fill-rule: evenodd;
      }
    </style>
  </defs>
  <path id="icon" class="cls-1" d="M334.9,233H322.957a2.989,2.989,0,0,1-2.985-2.986V218.068a2.989,2.989,0,0,1,2.985-2.986h5.971a1,1,0,0,1,0,1.99h-5.971a1,1,0,0,0-1,1v11.941a1,1,0,0,0,1,1H334.9a1,1,0,0,0,1-1v-5.971a1,1,0,0,1,1.99,0v5.971A2.989,2.989,0,0,1,334.9,233Zm1.99-11.942a0.994,0.994,0,0,1-1-1v-2.986h-2.985a1,1,0,1,1,0-1.99h3.98a0.994,0.994,0,0,1,1,1v3.981A0.994,0.994,0,0,1,336.889,221.053Zm-7.961,3.981a1,1,0,0,1-.7-1.7l7.962-7.961a0.995,0.995,0,1,1,1.407,1.407l-7.961,7.961A1,1,0,0,1,328.928,225.034Z" transform="translate(-319.969 -215.094)"/>
</svg>
