<svg id="icon_app" xmlns="http://www.w3.org/2000/svg" width="26" height="26" viewBox="0 0 26 26">
  <metadata><?xpacket begin="﻿" id="W5M0MpCehiHzreSzNTczkc9d"?>
<x:xmpmeta xmlns:x="adobe:ns:meta/" x:xmptk="Adobe XMP Core 5.6-c138 79.159824, 2016/09/14-01:09:01        ">
   <rdf:RDF xmlns:rdf="http://www.w3.org/1999/02/22-rdf-syntax-ns#">
      <rdf:Description rdf:about=""/>
   </rdf:RDF>
</x:xmpmeta>
                                                                                                    
                                                                                                    
                                                                                                    
                                                                                                    
                                                                                                    
                                                                                                    
                                                                                                    
                                                                                                    
                                                                                                    
                                                                                                    
                                                                                                    
                                                                                                    
                                                                                                    
                                                                                                    
                                                                                                    
                                                                                                    
                                                                                                    
                                                                                                    
                                                                                                    
                                                                                                    
                           
<?xpacket end="w"?></metadata>
<defs>
    <style>
      .cls-1 {
        fill: #636363;
        fill-opacity: 0;
        stroke: #fff;
        stroke-linejoin: round;
        stroke-width: 2px;
      }

      .cls-2 {
        fill: #fff;
        fill-rule: evenodd;
      }
    </style>
  </defs>
  <circle id="Circle" class="cls-1" cx="13" cy="13" r="12"/>
  <path id="arrow" class="cls-2" d="M668,94h1V93h-1v1Zm1-1h1V92h-1v1Zm1-1h1V91h-1v1Zm1-1h1V90h-1v1Zm-3-5h1v1h-1V86Zm1,1h1v1h-1V87Zm1,1h1v1h-1V88Zm1,1h1v1h-1V89Zm-2,5h1V93h-1v1Zm1-1h1V92h-1v1Zm1-1h1V91h-1v1Zm1-1h1V90h-1v1Zm-3-5h1v1h-1V86Zm1,1h1v1h-1V87Zm1,1h1v1h-1V88Zm1,1h1v1h-1V89Zm-4-4h1v1h-1V85Zm0,9h1v1h-1V94Zm-5-5h8v2h-8V89Z" transform="translate(-655 -77)"/>
</svg>
