<svg xmlns="http://www.w3.org/2000/svg" width="24" height="30" viewBox="0 0 24 30">
  <metadata><?xpacket begin="﻿" id="W5M0MpCehiHzreSzNTczkc9d"?>
<x:xmpmeta xmlns:x="adobe:ns:meta/" x:xmptk="Adobe XMP Core 5.6-c138 79.159824, 2016/09/14-01:09:01        ">
   <rdf:RDF xmlns:rdf="http://www.w3.org/1999/02/22-rdf-syntax-ns#">
      <rdf:Description rdf:about=""/>
   </rdf:RDF>
</x:xmpmeta>
                                                                                                    
                                                                                                    
                                                                                                    
                                                                                                    
                                                                                                    
                                                                                                    
                                                                                                    
                                                                                                    
                                                                                                    
                                                                                                    
                                                                                                    
                                                                                                    
                                                                                                    
                                                                                                    
                                                                                                    
                                                                                                    
                                                                                                    
                                                                                                    
                                                                                                    
                                                                                                    
                           
<?xpacket end="w"?></metadata>
<defs>
    <style>
      .cls-1 {
        fill: #fff;
        fill-rule: evenodd;
      }
    </style>
  </defs>
  <path id="icon_arrow" class="cls-1" d="M628,3069v-26h4v26h-4Zm-4-22v-2h2v2h-2Zm2-2v-2h2v2h-2Zm2-2v-2h2v2h-2Zm-8,8v-2h2v2h-2Zm2-2v-2h2v2h-2Zm14-2v-2h-2v2h2Zm-2-2v-2h-2v2h2Zm-2-2v-2h-2v2h2Zm8,8v-2h-2v2h2Zm-2-2v-2h-2v2h2Zm-14-4v-2h2v2h-2Zm2-2v-2h2v2h-2Zm2-2v-2h2v2h-2Zm-10,10v-2h2v2h-2Zm2-2v-2h2v2h-2Zm2-2v-2h2v2h-2Zm14-2v-2h-2v2h2Zm-2-2v-2h-2v2h2Zm-2-2v-2h-2v2h2Zm10,10v-2h-2v2h2Zm-2-2v-2h-2v2h2Zm-2-2v-2h-2v2h2Z" transform="translate(-618 -3039)"/>
</svg>
