<svg 
 xmlns="http://www.w3.org/2000/svg"
 xmlns:xlink="http://www.w3.org/1999/xlink"
 width="80px" height="80px">
<path fill-rule="evenodd"  fill="rgb(118, 118, 118)"
 d="M79.218,79.414 C78.828,79.805 78.318,80.000 77.807,80.000 C77.297,80.000 76.786,79.805 76.396,79.414 L65.627,68.619 C62.566,70.746 58.859,72.000 54.862,72.000 L7.973,72.000 C3.573,72.000 -0.008,68.411 -0.008,64.000 L-0.008,20.000 C-0.008,19.731 0.047,19.475 0.143,19.241 C0.144,19.238 0.145,19.235 0.146,19.233 C0.247,18.989 0.394,18.769 0.578,18.585 L18.533,0.587 C18.717,0.403 18.936,0.255 19.179,0.154 C19.182,0.152 19.185,0.152 19.188,0.151 C19.422,0.055 19.677,-0.000 19.945,-0.000 L51.869,-0.000 C56.269,-0.000 59.850,3.589 59.850,8.000 L59.850,34.690 C67.885,36.893 73.817,44.256 73.817,53.000 C73.817,58.028 71.844,62.593 68.652,65.995 L79.218,76.586 C79.997,77.367 79.997,78.633 79.218,79.414 ZM17.950,6.828 L6.804,18.000 L17.950,18.000 L17.950,6.828 ZM55.859,8.000 C55.859,5.794 54.070,4.000 51.869,4.000 L21.940,4.000 L21.940,20.000 C21.940,21.104 21.047,22.000 19.945,22.000 L3.983,22.000 L3.983,64.000 C3.983,66.206 5.773,68.000 7.973,68.000 L43.270,68.000 C39.550,65.105 36.941,60.861 36.167,56.000 L17.950,56.000 C16.848,56.000 15.954,55.104 15.954,54.000 C15.954,52.895 16.848,52.000 17.950,52.000 L35.957,52.000 C36.200,47.367 38.095,43.174 41.076,40.000 L17.950,40.000 C16.848,40.000 15.954,39.104 15.954,38.000 C15.954,36.895 16.848,36.000 17.950,36.000 L41.893,36.000 C42.848,36.000 43.644,36.674 43.840,37.573 C46.950,35.334 50.749,34.000 54.862,34.000 C55.198,34.000 55.527,34.033 55.859,34.051 L55.859,8.000 ZM54.862,38.000 C46.610,38.000 39.897,44.728 39.897,53.000 C39.897,61.271 46.610,68.000 54.862,68.000 C63.114,68.000 69.826,61.271 69.826,53.000 C69.826,44.728 63.114,38.000 54.862,38.000 ZM41.893,24.000 L29.921,24.000 C28.819,24.000 27.926,23.104 27.926,22.000 C27.926,20.895 28.819,20.000 29.921,20.000 L41.893,20.000 C42.994,20.000 43.888,20.895 43.888,22.000 C43.888,23.104 42.994,24.000 41.893,24.000 Z"/>
</svg>