<svg 
 xmlns="http://www.w3.org/2000/svg"
 xmlns:xlink="http://www.w3.org/1999/xlink"
 width="80px" height="80px">
<path fill-rule="evenodd"  fill="rgb(118, 118, 118)"
 d="M78.267,23.941 L70.308,25.940 C70.146,25.981 69.983,26.000 69.823,26.000 C68.932,26.000 68.121,25.394 67.894,24.485 C67.628,23.413 68.276,22.327 69.342,22.060 L77.301,20.060 C78.365,19.792 79.447,20.444 79.714,21.515 C79.981,22.587 79.333,23.673 78.267,23.941 ZM61.282,13.414 C60.893,13.805 60.384,14.000 59.875,14.000 C59.366,14.000 58.857,13.805 58.468,13.414 C57.691,12.633 57.691,11.367 58.468,10.586 L64.438,4.586 C65.215,3.805 66.474,3.805 67.252,4.586 C68.029,5.367 68.029,6.633 67.252,7.414 L61.282,13.414 ZM60.339,21.441 L61.593,30.000 L69.824,30.000 C72.019,30.000 73.804,31.794 73.804,34.000 L73.804,42.000 C73.804,44.206 72.019,46.000 69.824,46.000 L68.829,46.000 L68.829,72.000 C68.829,76.411 65.258,80.000 60.869,80.000 L45.945,80.000 L34.005,80.000 L19.081,80.000 C14.692,80.000 11.121,76.411 11.121,72.000 L11.121,46.000 L10.126,46.000 C7.931,46.000 6.146,44.206 6.146,42.000 L6.146,34.000 C6.146,31.794 7.931,30.000 10.126,30.000 L18.358,30.000 L19.613,21.432 C19.814,20.013 20.729,18.837 22.059,18.297 C23.385,17.758 24.852,17.961 25.983,18.839 L39.976,29.491 L53.968,18.839 C55.099,17.960 56.565,17.758 57.892,18.297 C59.222,18.837 60.137,20.013 60.339,21.441 ZM47.935,76.000 L60.869,76.000 C63.064,76.000 64.849,74.206 64.849,72.000 L64.849,46.000 L47.935,46.000 L47.935,76.000 ZM47.935,42.000 L66.839,42.000 L69.827,42.000 L69.824,34.000 L59.875,34.000 L47.935,34.000 L47.935,42.000 ZM15.101,72.000 C15.101,74.206 16.886,76.000 19.081,76.000 L32.015,76.000 L32.015,46.000 L15.101,46.000 L15.101,72.000 ZM20.076,34.000 L10.126,34.000 L10.126,42.000 L13.111,42.000 L32.015,42.000 L32.015,34.000 L20.076,34.000 ZM23.571,22.021 C23.564,22.016 23.558,22.011 23.552,22.006 L23.543,21.999 L22.378,30.000 L34.005,30.000 L34.054,30.000 L23.571,22.021 ZM43.955,34.000 L39.976,34.000 L39.975,34.000 L35.995,34.000 L35.995,42.000 L43.955,42.000 L43.955,34.000 ZM43.955,46.000 L35.995,46.000 L35.995,76.000 L43.955,76.000 L43.955,46.000 ZM56.401,22.014 C56.394,22.019 56.387,22.016 56.380,22.021 L45.897,30.000 L45.945,30.000 L57.571,30.000 L56.401,22.014 ZM39.976,12.000 C38.877,12.000 37.986,11.104 37.986,10.000 L37.986,2.000 C37.986,0.895 38.877,-0.000 39.976,-0.000 C41.074,-0.000 41.966,0.895 41.966,2.000 L41.966,10.000 C41.966,11.104 41.074,12.000 39.976,12.000 ZM20.076,14.000 C19.567,14.000 19.058,13.805 18.669,13.414 L12.700,7.414 C11.922,6.633 11.922,5.367 12.700,4.586 C13.477,3.805 14.736,3.805 15.514,4.586 L21.483,10.586 C22.261,11.367 22.261,12.633 21.483,13.414 C21.095,13.805 20.585,14.000 20.076,14.000 ZM10.128,26.000 C9.968,26.000 9.805,25.981 9.643,25.940 L1.685,23.941 C0.619,23.673 -0.029,22.587 0.237,21.515 C0.504,20.444 1.587,19.792 2.650,20.060 L10.609,22.060 C11.675,22.327 12.323,23.413 12.057,24.485 C11.830,25.394 11.019,26.000 10.128,26.000 Z"/>
</svg>