<svg xmlns="http://www.w3.org/2000/svg" width="78" height="23" viewBox="0 0 78 23">
  <metadata><?xpacket begin="﻿" id="W5M0MpCehiHzreSzNTczkc9d"?>
<x:xmpmeta xmlns:x="adobe:ns:meta/" x:xmptk="Adobe XMP Core 5.6-c138 79.159824, 2016/09/14-01:09:01        ">
   <rdf:RDF xmlns:rdf="http://www.w3.org/1999/02/22-rdf-syntax-ns#">
      <rdf:Description rdf:about=""/>
   </rdf:RDF>
</x:xmpmeta>
                                                                                                    
                                                                                                    
                                                                                                    
                                                                                                    
                                                                                                    
                                                                                                    
                                                                                                    
                                                                                                    
                                                                                                    
                                                                                                    
                                                                                                    
                                                                                                    
                                                                                                    
                                                                                                    
                                                                                                    
                                                                                                    
                                                                                                    
                                                                                                    
                                                                                                    
                                                                                                    
                           
<?xpacket end="w"?></metadata>
<defs>
    <style>
      .cls-1 {
        fill: #101010;
        fill-rule: evenodd;
      }
    </style>
  </defs>
  <path id="logo" class="cls-1" d="M49,35V58h3.553V35H49ZM92.515,58H96.07V35H92.515V58Zm-8.957,0h3.571V54.511H83.558V58ZM78.646,41.454a11.374,11.374,0,0,0-5.907-5.62A10.873,10.873,0,0,0,68.555,35H57.937V58h3.555V38.409h7.063a7.315,7.315,0,0,1,7.025,4.625,9.474,9.474,0,0,1,0,6.924,7.319,7.319,0,0,1-7.025,4.626H63.237V58h5.318a10.883,10.883,0,0,0,4.185-.837,11.358,11.358,0,0,0,3.483-2.272,11.187,11.187,0,0,0,2.424-3.347A12.448,12.448,0,0,0,78.646,41.454ZM123.253,35l-9.009,13.266L105.236,35l-3.744,0V58h3.554V40.629l7.443,10.746H116l7.442-10.746V58H127V35Z" transform="translate(-49 -35)"/>
</svg>
