<svg 
 xmlns="http://www.w3.org/2000/svg"
 xmlns:xlink="http://www.w3.org/1999/xlink"
 width="78px" height="24px">
<path fill-rule="evenodd"  fill="rgb(255, 255, 255)"
 d="M74.442,23.996 L74.442,5.875 L67.000,17.088 L63.489,17.088 L56.047,5.875 L56.047,23.996 L52.492,23.996 L52.492,-0.002 L56.236,-0.004 L65.245,13.839 L74.253,-0.004 L77.997,-0.002 L77.997,23.996 L74.442,23.996 ZM43.515,-0.002 L47.070,-0.002 L47.070,23.996 L43.515,23.996 L43.515,-0.002 ZM34.558,20.361 L38.129,20.361 L38.129,23.996 L34.558,23.996 L34.558,20.361 ZM27.223,20.752 C26.201,21.766 25.030,22.564 23.740,23.122 C22.399,23.702 20.991,23.996 19.555,23.996 L14.237,23.996 L14.237,20.435 L19.555,20.435 C22.828,20.435 25.405,18.594 26.580,15.609 C26.580,15.609 27.235,14.129 27.235,11.996 C27.235,9.864 26.580,8.384 26.580,8.384 C25.405,5.397 22.828,3.558 19.555,3.558 L12.492,3.558 L12.492,11.996 L12.492,17.207 L12.492,20.682 L12.492,23.996 L8.937,23.996 L8.937,11.996 L8.937,-0.002 L19.555,-0.002 C20.991,-0.002 22.399,0.291 23.740,0.872 C25.030,1.430 26.201,2.227 27.223,3.241 C28.242,4.253 29.057,5.429 29.647,6.736 C29.647,6.736 30.714,8.918 30.714,11.996 C30.714,15.076 29.647,17.260 29.647,17.260 C29.057,18.564 28.242,19.740 27.223,20.752 ZM-0.001,7.051 L-0.001,-0.002 L3.552,-0.002 L3.552,7.051 L3.552,23.996 L-0.001,23.996 L-0.001,7.051 Z"/>
</svg>