<svg xmlns="http://www.w3.org/2000/svg" width="7" height="14" viewBox="0 0 7 14">
  <metadata><?xpacket begin="﻿" id="W5M0MpCehiHzreSzNTczkc9d"?>
<x:xmpmeta xmlns:x="adobe:ns:meta/" x:xmptk="Adobe XMP Core 5.6-c138 79.159824, 2016/09/14-01:09:01        ">
   <rdf:RDF xmlns:rdf="http://www.w3.org/1999/02/22-rdf-syntax-ns#">
      <rdf:Description rdf:about=""/>
   </rdf:RDF>
</x:xmpmeta>
                                                                                                    
                                                                                                    
                                                                                                    
                                                                                                    
                                                                                                    
                                                                                                    
                                                                                                    
                                                                                                    
                                                                                                    
                                                                                                    
                                                                                                    
                                                                                                    
                                                                                                    
                                                                                                    
                                                                                                    
                                                                                                    
                                                                                                    
                                                                                                    
                                                                                                    
                                                                                                    
                           
<?xpacket end="w"?></metadata>
<defs>
    <style>
      .cls-1 {
        fill: #101010;
        fill-rule: evenodd;
      }
    </style>
  </defs>
  <path id="arrow" class="cls-1" d="M1595,1609h-1v1h1v-1Zm1,1h-1v1h1v-1Zm1,1h-1v1h1v-1Zm1,1h-1v1h1v-1Zm1,1h-1v1h1v-1Zm1,1h-1v1h1v-1Zm-1,1h1v1h-1v-1Zm-1,1h1v1h-1v-1Zm-1,1h1v1h-1v-1Zm-1,1h1v1h-1v-1Zm-1,1h1v1h-1v-1Zm-1,1h1v1h-1v-1Zm0-11h-1v1h1v-1Zm1,1h-1v1h1v-1Zm1,1h-1v1h1v-1Zm1,1h-1v1h1v-1Zm1,1h-1v1h1v-1Zm1,1h-1v1h1v-1Zm-1,1h1v1h-1v-1Zm-1,1h1v1h-1v-1Zm-1,1h1v1h-1v-1Zm-1,1h1v1h-1v-1Zm-1,1h1v1h-1v-1Zm-1,1h1v1h-1v-1Zm1-12h-1v1h1v-1Zm0,13h-1v1h1v-1Z" transform="translate(-1593 -1608)"/>
</svg>
