<svg xmlns="http://www.w3.org/2000/svg" width="16" height="12" viewBox="0 0 16 12">
  <metadata><?xpacket begin="﻿" id="W5M0MpCehiHzreSzNTczkc9d"?>
<x:xmpmeta xmlns:x="adobe:ns:meta/" x:xmptk="Adobe XMP Core 5.6-c138 79.159824, 2016/09/14-01:09:01        ">
   <rdf:RDF xmlns:rdf="http://www.w3.org/1999/02/22-rdf-syntax-ns#">
      <rdf:Description rdf:about=""/>
   </rdf:RDF>
</x:xmpmeta>
                                                                                                    
                                                                                                    
                                                                                                    
                                                                                                    
                                                                                                    
                                                                                                    
                                                                                                    
                                                                                                    
                                                                                                    
                                                                                                    
                                                                                                    
                                                                                                    
                                                                                                    
                                                                                                    
                                                                                                    
                                                                                                    
                                                                                                    
                                                                                                    
                                                                                                    
                                                                                                    
                           
<?xpacket end="w"?></metadata>
<defs>
    <style>
      .cls-1 {
        fill: #fff;
        fill-rule: evenodd;
      }
    </style>
  </defs>
  <path id="arrow" class="cls-1" d="M507,669h1v1h-1v-1Zm1,1h1v1h-1v-1Zm1,1h1v1h-1v-1Zm1,1h1v1h-1v-1Zm1,1h1v1h-1v-1Zm-4,6h1v-1h-1v1Zm1-1h1v-1h-1v1Zm1-1h1v-1h-1v1Zm1-1h1v-1h-1v1Zm1-1h1v-1h-1v1Zm-3-6h1v1h-1v-1Zm1,1h1v1h-1v-1Zm1,1h1v1h-1v-1Zm1,1h1v1h-1v-1Zm1,1h1v1h-1v-1Zm-4,6h1v-1h-1v1Zm1-1h1v-1h-1v1Zm1-1h1v-1h-1v1Zm1-1h1v-1h-1v1Zm1-1h1v-1h-1v1Zm-5-7h1v1h-1v-1Zm0,11h1v1h-1v-1Zm-10-6h14v2H497v-2Z" transform="translate(-497 -668)"/>
</svg>
