<svg xmlns="http://www.w3.org/2000/svg" width="180" height="56" viewBox="0 0 180 56">
  <metadata><?xpacket begin="﻿" id="W5M0MpCehiHzreSzNTczkc9d"?>
<x:xmpmeta xmlns:x="adobe:ns:meta/" x:xmptk="Adobe XMP Core 5.6-c138 79.159824, 2016/09/14-01:09:01        ">
   <rdf:RDF xmlns:rdf="http://www.w3.org/1999/02/22-rdf-syntax-ns#">
      <rdf:Description rdf:about=""/>
   </rdf:RDF>
</x:xmpmeta>
                                                                                                    
                                                                                                    
                                                                                                    
                                                                                                    
                                                                                                    
                                                                                                    
                                                                                                    
                                                                                                    
                                                                                                    
                                                                                                    
                                                                                                    
                                                                                                    
                                                                                                    
                                                                                                    
                                                                                                    
                                                                                                    
                                                                                                    
                                                                                                    
                                                                                                    
                                                                                                    
                           
<?xpacket end="w"?></metadata>
<defs>
    <style>
      .cls-1 {
        fill: #fff;
        fill-rule: evenodd;
      }
    </style>
  </defs>
  <path id="logo" class="cls-1" d="M668.752,468.954v55.975h8.2V468.954h-8.2Zm100.417,55.975h8.2V468.954h-8.2v55.975Zm-20.669,0h8.242v-8.48H748.5v8.48Zm-11.334-40.26a27.234,27.234,0,0,0-5.593-8.151,26.063,26.063,0,0,0-8.037-5.526,23.946,23.946,0,0,0-9.657-2.038h-24.5v55.975h8.2V477.257h16.3a16.892,16.892,0,0,1,16.21,11.256,24.237,24.237,0,0,1,0,16.853,16.9,16.9,0,0,1-16.21,11.256H701.608v8.307h12.271a23.981,23.981,0,0,0,9.657-2.039,26.055,26.055,0,0,0,8.037-5.529,27.257,27.257,0,0,0,5.593-8.145A31.812,31.812,0,0,0,737.166,484.669ZM840.1,468.948l-20.789,32.288-20.789-32.288-8.64.006v55.975h8.2V482.661l17.175,26.154h8.1l17.175-26.154v42.268h8.2V468.954Z" transform="translate(-668.75 -468.938)"/>
</svg>
